<?xml version="1.0" encoding="UTF-8"?>
<!DOCTYPE svg PUBLIC "-//W3C//DTD SVG 1.1//EN" "http://www.w3.org/Graphics/SVG/1.1/DTD/svg11.dtd">
<!-- Creator: CorelDRAW 2017 -->
<svg xmlns="http://www.w3.org/2000/svg" xml:space="preserve" width="8.26772in" height="11.6929in" version="1.1" style="shape-rendering:geometricPrecision; text-rendering:geometricPrecision; image-rendering:optimizeQuality; fill-rule:evenodd; clip-rule:evenodd"
viewBox="0 0 8267.72 11692.91"
 xmlns:xlink="http://www.w3.org/1999/xlink">
 <defs>
  <style type="text/css">
   <![CDATA[
    .fil0 {fill:black}
    .fil1 {fill:#1C1C1C}
   ]]>
  </style>
 </defs>
 <g id="Layer_x0020_1">
  <metadata id="CorelCorpID_0Corel-Layer"/>
  <path class="fil0" d="M5349.13 4233.59c16.84,16.18 110.63,40.29 129.4,44.42 49.44,10.89 100.58,16.68 153.66,16.74 48.33,0.06 157.56,-10.21 195.07,-28.59l0.12 -507.65c-16.14,7.81 -369.83,365.76 -420.82,416.96 -18.08,18.15 -42.43,39.6 -57.44,58.13z"/>
  <path class="fil0" d="M5436.9 3409.74c13.65,-9.09 100.61,-98.51 119.73,-117.51 27.75,-27.57 350.17,-346.57 359.06,-361.33 -91.17,-29.29 -112.13,-46.12 -223.7,-55.87 -74.65,-6.52 -188.22,1.36 -254.83,25.09l-0.26 509.62z"/>
  <path class="fil0" d="M5558.59 3934.2c17.79,-17.59 78.74,-74.02 87.5,-90.4l-674.82 -0.06c18.94,75.31 98.9,179.24 151,233.91 38.6,40.51 122.78,113.84 167,127.11l269.32 -270.57z"/>
  <path class="fil0" d="M5011.69 3237.76c9.1,15.26 235.53,237.25 269.13,271.38l91.45 89.77 -1.36 -676.55c-125.15,51.5 -211.76,118.29 -292.31,215.17 -20.07,24.14 -52.05,67.68 -66.91,100.23z"/>
  <path class="fil0" d="M6045.33 3627.91c40.62,41.26 78.02,80.06 119.09,120.94 39.04,38.86 81.94,78.61 118.11,118.3 26.7,-31.7 53.29,-169.48 58.19,-223.78 6.85,-75.83 -1.65,-189.69 -25.21,-254.9l-509.65 -0.11 239.47 239.54z"/>
  <path class="fil0" d="M5617.18 3323.72c218.03,-0 460.84,-3.26 675.81,0.33 -14.73,-60.07 -96.14,-179 -127.23,-209.83 -15.17,-15.05 -26.22,-29.95 -41.96,-44.68 -35.28,-32.99 -102.56,-86.3 -145.38,-106.73l-361.24 360.91z"/>
  <path class="fil0" d="M4983.72 3300.24c-5.43,4.34 -1.71,0.52 -5.8,6.09 -26.31,35.81 -50.97,181.31 -54.49,219.69 -5.68,62 1.78,199.79 25.42,252.67l508.38 0.02 -473.51 -478.47z"/>
  <path class="fil1" d="M5973.94 3653.43c-5.61,-14.25 -30.62,-32.41 -40.57,-43.64 -14.74,-16.63 -30.36,-29.33 -41.39,-40.95l0.45 85.57 -0.33 590.25c74.84,-20.32 162.15,-88.17 209.93,-127.17 49.91,-40.75 119.06,-128.52 150.39,-186.39 -6.91,-11.93 -183.53,-185.35 -209.15,-211.07 -12.44,-12.48 -58.12,-61.25 -69.32,-66.59z"/>
 </g>
</svg>
